<svg preserveAspectRatio="none" overflow="visible" style="display: block;" width="1440" height="1024" viewBox="0 0 1440 1024" fill="none" xmlns="http://www.w3.org/2000/svg">
<g id="Decorative contours" clip-path="url(#clip0_0_19)">
<path id="Flow contour" opacity="0.24" d="M1376.56 1021.25C1324.32 1014.12 1325.57 1020.67 1377.81 1022.59C1421.34 1025.68 1408.9 1023.08 1440 1020.67" stroke-width="1.5" stroke="#DDEEE8"/>
<mask id="stroke0_0_19" fill="white">
<path d="M1327.47 1008.33C1302.56 999.832 1303.13 992.481 1327.47 1008.33Z"/>
</mask>
<path id="Flow contour_2" opacity="0.24" d="M1327.47 1008.33L1327.71 1007.62L1327.06 1008.96L1327.47 1008.33ZM1362.01 1016.56L1362.24 1015.85L1362.18 1015.83L1362.13 1015.82L1362.01 1016.56ZM1342.7 1019.11L1343.15 1018.51C1337.32 1014.09 1332.22 1010.53 1327.88 1007.7L1327.47 1008.33L1327.06 1008.96C1331.37 1011.77 1336.44 1015.31 1342.25 1019.71L1342.7 1019.11ZM1327.47 1008.33L1327.22 1009.04C1335.78 1011.96 1347.32 1015.01 1361.9 1017.31L1362.01 1016.56L1362.13 1015.82C1347.63 1013.54 1336.18 1010.51 1327.71 1007.62L1327.47 1008.33ZM1362.01 1016.56L1361.79 1017.28C1387.77 1025.43 1398.21 1026.15 1406.83 1023.06C1411.09 1021.54 1414.89 1019.08 1419.83 1016.29C1424.79 1013.48 1431.01 1010.25 1440.24 1007.09L1440 1006.38L1439.76 1005.67C1430.42 1008.87 1424.11 1012.14 1419.09 1014.98C1414.04 1017.84 1410.42 1020.18 1406.32 1021.65C1398.23 1024.55 1388.24 1024 1362.24 1015.85L1362.01 1016.56ZM1327.47 1008.33L1326.98 1009.75L1328.28 1007.07L1327.47 1008.33ZM1327.47 1008.33L1328.28 1007.07C1322.16 1003.08 1317.49 1000.53 1314.32 999.083C1312.74 998.365 1311.48 997.894 1310.56 997.668C1310.13 997.56 1309.65 997.475 1309.21 997.507C1308.99 997.522 1308.64 997.574 1308.29 997.794C1307.87 998.059 1307.55 998.517 1307.51 999.085C1307.47 999.553 1307.63 999.923 1307.74 1000.12C1307.86 1000.34 1308.01 1000.53 1308.15 1000.68C1308.42 1000.99 1308.79 1001.3 1309.2 1001.62C1310.04 1002.25 1311.26 1003 1312.83 1003.84C1315.99 1005.52 1320.7 1007.6 1326.98 1009.75L1327.47 1008.33L1327.95 1006.91C1321.78 1004.8 1317.23 1002.78 1314.24 1001.19C1312.75 1000.39 1311.68 999.72 1311.01 999.217C1310.67 998.961 1310.47 998.78 1310.38 998.678C1310.33 998.626 1310.35 998.632 1310.38 998.691C1310.4 998.729 1310.52 998.961 1310.5 999.314C1310.46 999.768 1310.2 1000.13 1309.88 1000.33C1309.64 1000.49 1309.44 1000.5 1309.42 1000.5C1309.38 1000.5 1309.5 1000.49 1309.84 1000.58C1310.5 1000.74 1311.56 1001.12 1313.07 1001.81C1316.07 1003.18 1320.6 1005.65 1326.65 1009.59L1327.47 1008.33Z" fill="#DDEEE8" mask="url(#stroke0_0_19)"/>
<path id="Flow contour_3" opacity="0.24" d="M1305.22 1024C1263.1 955.142 1271.52 983.057 1347.34 1001.67C1406.3 1031.44 1397.88 1006.32 1440 983.057" stroke-width="1.5" stroke="#DDEEE8"/>
<path id="Flow contour_4" opacity="0.24" d="M1265.92 1024C1235.52 950 1248.42 961 1334.08 981C1398.55 1013 1393.95 986 1440 961" stroke-width="1.5" stroke="#DDEEE8"/>
<path id="Flow contour_5" opacity="0.24" d="M1227.06 1024C1211.43 950 1229.01 942 1322.78 962C1391.16 994 1391.16 967 1440 942" stroke-width="1.5" stroke="#DDEEE8"/>
<path id="Flow contour_6" opacity="0.24" d="M1193 1024C1194 950 1216 923 1315 943C1385 975 1390 948 1440 923" stroke-width="1.5" stroke="#DDEEE8"/>
<path id="Flow contour_7" opacity="0.24" d="M1164 1024C1182 950 1208 904 1310 924C1380 956 1390 929 1440 904" stroke-width="1.5" stroke="#DDEEE8"/>
<path id="Flow contour_8" opacity="0.24" d="M1135 1024C1170 950 1200 885 1305 905C1375 937 1390 910 1440 885" stroke-width="1.5" stroke="#DDEEE8"/>
<path id="Flow contour_9" opacity="0.24" d="M1106 1024C1158 950 1192 866 1300 886C1370 918 1390 891 1440 866" stroke-width="1.5" stroke="#DDEEE8"/>
<path id="Flow contour_10" opacity="0.24" d="M1077 1024C1146 950 1184 847 1295 867C1365 899 1390 872 1440 847" stroke-width="1.5" stroke="#DDEEE8"/>
<path id="Flow contour_11" opacity="0.24" d="M1048 1024C1134 950 1176 828 1290 848C1360 880 1390 853 1440 828" stroke-width="1.5" stroke="#DDEEE8"/>
<path id="Flow contour_12" opacity="0.24" d="M1019 1024C1122 950 1168 809 1285 829C1355 861 1390 834 1440 809" stroke-width="1.5" stroke="#DDEEE8"/>
<path id="Flow contour_13" opacity="0.24" d="M990 1024C1110 950 1160 790 1280 810C1350 842 1390 815 1440 790" stroke-width="1.5" stroke="#DDEEE8"/>
<path id="Flow contour_14" opacity="0.24" d="M961 1024C1098 950 1152 771 1275 791C1345 823 1390 796 1440 771" stroke-width="1.5" stroke="#DDEEE8"/>
<path id="Flow contour_15" opacity="0.24" d="M932 1024C1086 950 1144 752 1270 772C1340 804 1390 777 1440 752" stroke-width="1.5" stroke="#DDEEE8"/>
<path id="Flow contour_16" opacity="0.24" d="M903 1024C1074 950 1136 733 1265 753C1335 785 1390 758 1440 733" stroke-width="1.5" stroke="#DDEEE8"/>
<path id="Flow contour_17" opacity="0.24" d="M874 1024C1062 950 1128 714 1260 734C1330 766 1390 739 1440 714" stroke-width="1.5" stroke="#DDEEE8"/>
<path id="Flow contour_18" opacity="0.24" d="M845 1024C1050 950 1120 695 1255 715C1325 747 1390 720 1440 695" stroke-width="1.5" stroke="#DDEEE8"/>
<path id="Flow contour_19" opacity="0.24" d="M816 1024C1038 950 1112 676 1250 696C1320 728 1390 701 1440 676" stroke-width="1.5" stroke="#DDEEE8"/>
<path id="Flow contour_20" opacity="0.24" d="M787 1024C1026 950 1104 657 1245 677C1315 709 1390 682 1440 657" stroke-width="1.5" stroke="#DDEEE8"/>
<path id="Flow contour_21" opacity="0.24" d="M758 1024C1014 950 1096 638 1240 658C1310 690 1390 663 1440 638" stroke-width="1.5" stroke="#DDEEE8"/>
<path id="Flow contour_22" opacity="0.24" d="M729 1024C1002 950 1088 619 1235 639C1305 671 1390 644 1440 619" stroke-width="1.5" stroke="#DDEEE8"/>
<path id="Flow contour_23" opacity="0.24" d="M700 1024C990 950 1080 600 1230 620C1300 652 1390 625 1440 600" stroke-width="1.5" stroke="#DDEEE8"/>
<path id="Flow contour_24" opacity="0.18" d="M402.081 0C412.972 250 369.408 420 391.19 500C412.972 700 451.09 990 560 1024" stroke="#DDEEE8"/>
<path id="Flow contour_25" opacity="0.18" d="M373.508 0C384.414 250 349.517 420 371.327 500C393.138 700 414.948 990 524 1024" stroke="#DDEEE8"/>
<path id="Flow contour_26" opacity="0.18" d="M345.438 0C356.321 250 330.202 420 351.968 500C373.733 700 379.174 990 488 1024" stroke="#DDEEE8"/>
<path id="Flow contour_27" opacity="0.18" d="M322 0C332.484 250 315.71 420 336.677 500C357.645 700 347.161 990 452 1024" stroke="#DDEEE8"/>
<path id="Flow contour_28" opacity="0.18" d="M299 0C309 250 301 420 321 500C341 700 316 990 416 1024" stroke="#DDEEE8"/>
<path id="Flow contour_29" opacity="0.18" d="M270 0C280 250 280 420 300 500C320 700 280 990 380 1024" stroke="#DDEEE8"/>
<path id="Flow contour_30" opacity="0.18" d="M241 0C251 250 259 420 279 500C299 700 244 990 344 1024" stroke="#DDEEE8"/>
<path id="Flow contour_31" opacity="0.18" d="M212 0C222 250 238 420 258 500C278 700 208 990 308 1024" stroke="#DDEEE8"/>
<path id="Flow contour_32" opacity="0.18" d="M183 0C193 250 217 420 237 500C257 700 172 990 272 1024" stroke="#DDEEE8"/>
<path id="Flow contour_33" opacity="0.6" d="M154 0C164 250 196 420 216 500C236 700 136 990 236 1024" stroke-width="2" stroke="#DDEEE8"/>
<path id="Flow contour_34" opacity="0.6" d="M125 0C137 250 185 420 209 500C233 700 95 990 215 1024" stroke-width="2" stroke="#DDEEE8"/>
<path id="Flow contour_35" opacity="0.6" d="M96 0C108.23 250 166.935 420 191.395 500C215.855 700 56.8635 990 179.165 1024" stroke-width="2" stroke="#DDEEE8"/>
<path id="Flow contour_36" opacity="0.6" d="M67 0C79.0562 250 146.571 420 170.683 500C194.796 700 19.9809 990 140.543 1024" stroke-width="2" stroke="#DDEEE8"/>
<path id="Flow contour_37" opacity="0.6" d="M38 0C49.9059 250 126.103 420 149.915 500C173.727 700 -16.767 990 102.292 1024" stroke-width="2" stroke="#DDEEE8"/>
<path id="Flow contour_38" opacity="0.6" d="M9 0C20.7751 250 105.556 420 129.106 500C152.656 700 -53.408 990 64.3429 1024" stroke-width="2" stroke="#DDEEE8"/>
<path id="Flow contour_39" opacity="0.6" d="M-20 0C-8.33953 250 84.9443 420 108.265 500C131.586 700 -89.9628 990 26.6419 1024" stroke-width="2" stroke="#DDEEE8"/>
<path id="Flow contour_40" opacity="0.6" d="M-49 0C-37.4407 250 64.2816 420 87.4003 500C110.519 700 -126.448 990 -10.8542 1024" stroke-width="2" stroke="#DDEEE8"/>
<path id="Flow contour_41" opacity="0.6" d="M-77.7804 0C-66.3281 250 43.6138 420 66.5183 500C89.4229 700 -162.527 990 -48.0045 1024" stroke-width="2" stroke="#DDEEE8"/>
<path id="Flow contour_42" opacity="0.6" d="M-100.576 0C-89.6616 250 23.8459 420 45.6742 500C67.5026 700 -188.981 990 -79.8389 1024" stroke-width="2" stroke="#DDEEE8"/>
<path id="Flow contour_43" opacity="0.6" d="M-123.755 0C-113.293 250 3.87877 420 24.8023 500C45.7259 700 -215.818 990 -111.201 1024" stroke-width="2" stroke="#DDEEE8"/>
<path id="Flow contour_44" opacity="0.6" d="M-147.235 0C-137.159 250 -16.2433 420 3.90921 500C24.0618 700 -242.96 990 -142.197 1024" stroke-width="2" stroke="#DDEEE8"/>
<path id="Flow contour_45" opacity="0.6" d="M-172.697 0C-162.843 250 -36.7187 420 -17.0117 500C2.6953 700 -273.203 990 -174.668 1024" stroke-width="2" stroke="#DDEEE8"/>
<path id="Flow contour_46" opacity="0.6" d="M-202.511 0C-192.599 250 -57.7923 420 -37.9678 500C-18.1434 700 -310.554 990 -211.432 1024" stroke-width="2" stroke="#DDEEE8"/>
<path id="Flow contour_47" opacity="0.6" d="M-232.223 0C-222.263 250 -78.8461 420 -58.927 500C-39.008 700 -347.753 990 -248.158 1024" stroke-width="2" stroke="#DDEEE8"/>
<path id="Flow contour_48" opacity="0.6" d="M-261.85 0C-251.852 250 -99.8848 420 -79.8891 500C-59.8934 700 -384.824 990 -284.845 1024" stroke-width="2" stroke="#DDEEE8"/>
<path id="Flow contour_49" opacity="0.6" d="M-291.407 0C-281.378 250 -120.912 420 -100.854 500C-80.7955 700 -421.786 990 -321.495 1024" stroke-width="2" stroke="#DDEEE8"/>
<path id="Flow contour_50" opacity="0.6" d="M-320.906 0C-310.851 250 -141.931 420 -121.821 500C-101.711 700 -458.656 990 -358.108 1024" stroke-width="2" stroke="#DDEEE8"/>
<path id="Flow contour_51" opacity="0.6" d="M-350.353 0C-340.277 250 -162.942 420 -142.79 500C-122.639 700 -495.446 990 -394.687 1024" stroke-width="2" stroke="#DDEEE8"/>
<path id="Flow contour_52" opacity="0.6" d="M-379.758 0C-369.665 250 -183.948 420 -163.762 500C-143.575 700 -532.167 990 -431.234 1024" stroke-width="2" stroke="#DDEEE8"/>
<path id="Flow contour_53" opacity="0.6" d="M-409.125 0C-399.018 250 -204.95 420 -184.735 500C-164.52 700 -568.827 990 -467.75 1024" stroke-width="2" stroke="#DDEEE8"/>
<path id="Flow contour_54" opacity="0.6" d="M-438.461 0C-428.341 250 -225.949 420 -205.71 500C-185.471 700 -605.434 990 -504.238 1024" stroke-width="2" stroke="#DDEEE8"/>
<path id="Flow contour_55" opacity="0.6" d="M-467.767 0C-457.638 250 -246.945 420 -226.687 500C-206.428 700 -641.994 990 -540.699 1024" stroke-width="2" stroke="#DDEEE8"/>
<path id="Flow contour_56" opacity="0.6" d="M-497.049 0C-486.912 250 -267.94 420 -247.665 500C-227.389 700 -678.512 990 -577.136 1024" stroke-width="2" stroke="#DDEEE8"/>
<path id="Flow contour_57" opacity="0.6" d="M-526.309 0C-516.165 250 -288.933 420 -268.644 500C-248.355 700 -714.993 990 -613.55 1024" stroke-width="2" stroke="#DDEEE8"/>
<path id="Flow contour_58" opacity="0.6" d="M-555.55 0C-545.4 250 -309.924 420 -289.624 500C-269.325 700 -751.441 990 -649.943 1024" stroke-width="2" stroke="#DDEEE8"/>
<path id="Flow contour_59" opacity="0.6" d="M-584.773 0C-574.618 250 -330.915 420 -310.606 500C-290.297 700 -787.859 990 -686.316 1024" stroke-width="2" stroke="#DDEEE8"/>
</g>
<defs>
<clipPath id="clip0_0_19">
<rect width="1440" height="1024" fill="white"/>
</clipPath>
</defs>
</svg>
